HIERARCHY
ROOT joint_Root
{
	OFFSET 0.0 0.0 0.0
	CHANNELS 6 Xposition Yposition Zposition Zrotation Xrotation Yrotation 
	JOINT Hips
	{
		OFFSET -17.1583 93.1646 452.98
		CHANNELS 6 Xposition Yposition Zposition Zrotation Xrotation Yrotation 
		JOINT Spine
		{
			OFFSET 15.7357 0.0 0.0
			CHANNELS 6 Xposition Yposition Zposition Zrotation Xrotation Yrotation 
			JOINT Chest
			{
				OFFSET 8.98455 -0.406207 0.0
				CHANNELS 6 Xposition Yposition Zposition Zrotation Xrotation Yrotation 
				JOINT Neck
				{
					OFFSET 16.3773 0.0 0.0
					CHANNELS 6 Xposition Yposition Zposition Zrotation Xrotation Yrotation 
					JOINT Head
					{
						OFFSET 6.45672 0.0 0.0
						CHANNELS 6 Xposition Yposition Zposition Zrotation Xrotation Yrotation 
						End Site
						{
							OFFSET 0.0 0.0 0.0
						}
					}
				}
				JOINT Shoulder_L
				{
					OFFSET 12.9942 -0.242716 4.98039
					CHANNELS 6 Xposition Yposition Zposition Zrotation Xrotation Yrotation 
					JOINT UpperArm_L
					{
						OFFSET 5.34809 0.0 0.0
						CHANNELS 6 Xposition Yposition Zposition Zrotation Xrotation Yrotation 
						JOINT LowerArm_L
						{
							OFFSET 24.3286 1.87007e-05 0.0
							CHANNELS 6 Xposition Yposition Zposition Zrotation Xrotation Yrotation 
							JOINT Hand_L
							{
								OFFSET 22.2916 0.0 0.0
								CHANNELS 6 Xposition Yposition Zposition Zrotation Xrotation Yrotation 
								End Site
								{
									OFFSET 0.0 0.0 0.0
								}
							}
						}
					}
				}
				JOINT Shoulder_R
				{
					OFFSET 12.9945 -0.242716 -4.98039
					CHANNELS 6 Xposition Yposition Zposition Zrotation Xrotation Yrotation 
					JOINT UpperArm_R
					{
						OFFSET -5.34813 0.0 0.0
						CHANNELS 6 Xposition Yposition Zposition Zrotation Xrotation Yrotation 
						JOINT LowerArm_R
						{
							OFFSET -24.3289 0.000322201 0.0
							CHANNELS 6 Xposition Yposition Zposition Zrotation Xrotation Yrotation 
							JOINT Hand_R
							{
								OFFSET -22.2915 -0.000108084 0.0
								CHANNELS 6 Xposition Yposition Zposition Zrotation Xrotation Yrotation 
								End Site
								{
									OFFSET 0.0 0.0 0.0
								}
							}
						}
					}
				}
			}
		}
		JOINT UpperLeg_L
		{
			OFFSET -2.19248 -6.46944 0.0
			CHANNELS 6 Xposition Yposition Zposition Zrotation Xrotation Yrotation 
			JOINT LowerLeg_L
			{
				OFFSET 39.0811 0.0 -1.23785e-05
				CHANNELS 6 Xposition Yposition Zposition Zrotation Xrotation Yrotation 
				JOINT Foot_L
				{
					OFFSET 40.9854 0.0 -1.26872e-05
					CHANNELS 6 Xposition Yposition Zposition Zrotation Xrotation Yrotation 
					JOINT Toes_L
					{
						OFFSET 11.7543 0.0 0.0
						CHANNELS 6 Xposition Yposition Zposition Zrotation Xrotation Yrotation 
						End Site
						{
							OFFSET 0.0 0.0 0.0
						}
					}
				}
			}
		}
		JOINT UpperLeg_R
		{
			OFFSET -2.19251 6.46944 0.0
			CHANNELS 6 Xposition Yposition Zposition Zrotation Xrotation Yrotation 
			JOINT LowerLeg_R
			{
				OFFSET -39.0811 -0.00228153 -0.0401928
				CHANNELS 6 Xposition Yposition Zposition Zrotation Xrotation Yrotation 
				JOINT Foot_R
				{
					OFFSET -40.9854 0.0 0.0
					CHANNELS 6 Xposition Yposition Zposition Zrotation Xrotation Yrotation 
					JOINT Toes_R
					{
						OFFSET -11.7543 0.0 0.0
						CHANNELS 6 Xposition Yposition Zposition Zrotation Xrotation Yrotation 
						End Site
						{
							OFFSET 0.0 0.0 0.0
						}
					}
				}
			}
		}
	}
}
MOTION
Frames:	4
Frame Time:	0.0333333
0.000000 0.000000 0.000000 0.000000 0.000000 -0.000000 0.310679 92.873200 -0.314525 86.590600 -2.564780 0.812790 15.735700 0.000005 -0.000001 77.398900 87.749100 -75.474200 8.984550 -0.406207 -0.000000 -3.350390 -1.168250 3.816290 16.377300 -0.000001 -0.000001 6.298930 4.013980 -0.969411 6.456720 -0.000001 -0.000000 5.913210 5.414430 -5.707490 12.994200 -0.242716 4.980390 -92.633300 8.197670 -72.123100 5.348090 -0.000007 -0.000001 -73.346500 28.221200 1.278330 24.328600 0.000019 0.000005 12.915600 28.742700 -25.495200 22.291600 -0.000001 0.000005 -3.462670 5.037090 6.520320 12.994500 -0.242716 -4.980390 88.626700 4.384360 -72.588600 -5.348130 -0.000001 -0.000004 -72.824400 18.563500 -2.532050 -24.328900 0.000322 -0.000009 0.970141 2.727240 -19.609900 -22.291500 -0.000108 -0.000004 3.693520 5.249970 1.433490 -2.192480 -6.469440 -0.000000 -176.966000 -1.294100 -2.742100 39.081100 -0.000007 -0.000012 0.213507 -0.582063 20.144000 40.985400 -0.000006 -0.000013 3.147880 7.408930 -71.834000 11.754300 -0.000000 0.000003 -0.000086 0.169062 -9.719680 -2.192510 6.469440 -0.000001 -175.604000 4.595270 -178.396000 -39.081100 -0.002282 -0.040193 0.030201 -0.118838 12.739400 -40.985400 0.000008 0.000006 -0.954372 4.486590 -68.701800 -11.754300 -0.000006 -0.000006 -0.012907 0.291874 -4.708840
0.000000 0.000000 0.000000 0.000000 0.000000 -0.000000 0.268741 92.874300 -0.332359 86.612500 -2.541680 0.841790 15.735700 0.000005 -0.000001 77.607400 87.733200 -75.701500 8.984550 -0.406207 -0.000000 -3.316380 -1.156680 3.779420 16.377300 -0.000001 -0.000001 6.246250 4.029050 -0.981440 6.456720 -0.000001 -0.000000 5.841480 5.398240 -5.695470 12.994200 -0.242716 4.980390 -92.636400 8.203710 -72.115500 5.348090 -0.000007 -0.000001 -73.319900 28.112000 1.238930 24.328600 0.000019 0.000005 12.876900 28.655100 -25.488100 22.291600 -0.000001 0.000005 -3.425020 5.031510 6.641910 12.994500 -0.242716 -4.980390 88.629600 4.377160 -72.596600 -5.348130 -0.000001 -0.000004 -72.691500 17.805800 -2.403850 -24.328900 0.000322 -0.000009 1.127520 3.033610 -20.417500 -22.291500 -0.000108 -0.000004 3.568420 5.247360 1.502420 -2.192480 -6.469440 -0.000000 -176.958000 -1.292220 -2.725310 39.081100 -0.000007 -0.000012 0.213669 -0.582551 20.142500 40.985400 -0.000006 -0.000013 3.118010 7.419610 -71.852000 11.754300 -0.000000 0.000003 -0.000100 0.169289 -9.710450 -2.192510 6.469440 -0.000001 -175.595000 4.615730 -178.379000 -39.081100 -0.002282 -0.040193 0.030562 -0.120409 12.741900 -40.985400 0.000008 0.000006 -0.898983 4.492260 -68.681500 -11.754300 -0.000006 -0.000006 -0.012733 0.290705 -4.756740
0.000000 0.000000 0.000000 0.000000 0.000000 -0.000000 0.225634 92.878000 -0.373976 86.610700 -2.547100 0.693229 15.735700 0.000005 -0.000001 77.790900 87.770100 -75.893500 8.984550 -0.406207 -0.000000 -3.385860 -1.127240 3.762560 16.377300 -0.000001 -0.000001 6.173450 4.029680 -0.988090 6.456720 -0.000001 -0.000000 5.710670 5.401930 -5.681340 12.994200 -0.242716 4.980390 -92.638800 8.199960 -72.092700 5.348090 -0.000007 -0.000001 -73.288800 28.108000 1.184830 24.328600 0.000019 0.000005 12.900000 28.725200 -25.479700 22.291600 -0.000001 0.000005 -3.346430 5.032720 6.615640 12.994500 -0.242716 -4.980390 88.631500 4.352780 -72.528000 -5.348130 -0.000001 -0.000004 -72.575600 16.711800 -2.246560 -24.328900 0.000322 -0.000009 1.277260 3.239500 -21.548000 -22.291500 -0.000108 -0.000004 3.683140 5.245720 1.545670 -2.192480 -6.469440 -0.000000 -176.942000 -1.157550 -2.905490 39.081100 -0.000007 -0.000012 0.214542 -0.584665 20.150900 40.985400 -0.000006 -0.000013 3.070480 7.340230 -71.813600 11.754300 -0.000000 0.000003 0.000028 0.167156 -9.797070 -2.192510 6.469440 -0.000001 -175.527000 4.617920 -178.548000 -39.081100 -0.002282 -0.040193 0.031821 -0.126071 12.732600 -40.985400 0.000008 0.000006 -0.784804 4.434460 -68.738400 -11.754300 -0.000006 -0.000006 -0.013203 0.293855 -4.627650
0.000000 0.000000 0.000000 0.000000 0.000000 -0.000000 0.160866 92.882600 -0.411954 86.588100 -2.486880 0.650935 15.735700 0.000005 -0.000001 77.416900 87.763300 -75.519700 8.984550 -0.406207 -0.000000 -3.378380 -1.158470 3.761220 16.377300 -0.000001 -0.000001 6.100120 4.037960 -0.991156 6.456720 -0.000001 -0.000000 5.526970 5.441810 -5.624650 12.994200 -0.242716 4.980390 -92.639100 8.187850 -72.066300 5.348090 -0.000007 -0.000001 -73.287900 28.146000 1.178520 24.328600 0.000019 0.000005 12.856000 28.544800 -25.529300 22.291600 -0.000001 0.000005 -3.385180 5.031580 6.640430 12.994500 -0.242716 -4.980390 88.622900 4.379470 -72.525500 -5.348130 -0.000001 -0.000004 -72.389800 14.891200 -1.930530 -24.328900 0.000322 -0.000009 1.689690 3.926380 -23.319100 -22.291500 -0.000108 -0.000004 3.323210 5.231660 1.912850 -2.192480 -6.469440 -0.000000 -176.869000 -1.151340 -2.998840 39.081100 -0.000007 -0.000012 0.212970 -0.579642 20.174600 40.985400 -0.000006 -0.000013 3.023400 7.364290 -71.761300 11.754300 -0.000000 0.000003 0.000120 0.165588 -9.860760 -2.192510 6.469440 -0.000001 -175.458000 4.611960 -178.604000 -39.081100 -0.002282 -0.040193 0.030680 -0.121382 12.695900 -40.985400 0.000008 0.000006 -0.858290 4.368150 -68.643100 -11.754300 -0.000006 -0.000006 -0.012705 0.290516 -4.764490
